<?xml version="1.0" encoding="utf-8"?>
<!-- Generator: Adobe Illustrator 21.0.0, SVG Export Plug-In . SVG Version: 6.00 Build 0)  -->
<svg version="1.1" id="Layer_1" xmlns="http://www.w3.org/2000/svg" xmlns:xlink="http://www.w3.org/1999/xlink" x="0px" y="0px"
	 viewBox="0 0 101.8 90" style="enable-background:new 0 0 101.8 90;" xml:space="preserve">
<style type="text/css">
	.st0{fill:none;stroke:#31475F;stroke-width:2;stroke-linecap:round;stroke-linejoin:round;stroke-miterlimit:10;}
	.st1{fill:none;stroke:#55A4E6;stroke-width:2;stroke-linecap:round;stroke-miterlimit:10;}
</style>
<title>cv-lookup</title>
<g>
	<path class="st0" d="M94.8,18v54.9c0,6.4-5.2,11.6-11.6,11.6H46.6c-6.4,0-11.5-5.2-11.5-11.6V16.7c0-6.4,5.2-11.6,11.5-11.6h34.5"
		/>
	<line class="st1" x1="45.8" y1="18.6" x2="69.2" y2="18.6"/>
	<line class="st1" x1="45.8" y1="23.8" x2="83.1" y2="23.8"/>
	<path class="st0" d="M80.2,60.4H50.8c-2.8,0-5-2.2-5-5v-16c0-2.8,2.2-5,5-5h29.4c2.8,0,5,2.2,5,5v16C85.2,58.2,83,60.4,80.2,60.4z"
		/>
	<g>
		<path class="st1" d="M31,40.4h-5.6c-1,0-2-0.4-2.7-1.1l-2.1-2.1c-0.7-0.7-1.7-1.1-2.7-1.1h-6.8c-2.1,0-3.9,1.7-3.9,3.9v38.3
			c0,2.1,1.7,3.9,3.9,3.9H32"/>
		<path class="st1" d="M32,48.1H13.5v29.1c0,0,0.2,4.8-3,4.8"/>
	</g>
	<g>
		<line class="st0" x1="54" y1="44.5" x2="58.9" y2="49.5"/>
		<line class="st0" x1="58.9" y1="44.5" x2="54" y2="49.5"/>
	</g>
	<g>
		<line class="st0" x1="72" y1="44.5" x2="76.9" y2="49.5"/>
		<line class="st0" x1="76.9" y1="44.5" x2="72" y2="49.5"/>
	</g>
	<line class="st0" x1="60" y1="74.2" x2="71" y2="74.2"/>
	<path class="st0" d="M81.1,5.2v7.1c0,3.1,2.5,5.7,5.7,5.7h8L81.1,5.2z"/>
</g>
</svg>
